# xmcd CD database file
#
# Track frame offsets:
#	150
#	25260
#	44120
#	64274
#	81559
#	97550
#	113265
#	132682
#	156131
#	173861
#	186324
#	200621
#	218568
#	237237
#
# Disc length: 3439 seconds
#
# Revision: 0
# Processed by: cddbd v1.5.2PL0 Copyright (c) Steve Scherf et al.
# Submitted via: CDex 1.51
#
DISCID=c30d6d0e
DTITLE=J.J. Cale and Eric Clapton - The Road To Escondido
DYEAR=2006
DGENRE=Blues
TTITLE0=Danger
TTITLE1=Heads in Georgia
TTITLE2=Missing Person
TTITLE3=When the War is Over
TTITLE4=Sporting Life Blues
TTITLE5=Dead End Road
TTITLE6=It's Easy
TTITLE7=Hard To Thril
TTITLE8=Anyway the Wind Blows
TTITLE9=Three Little Girls
TTITLE10=Don't Cry Sister
TTITLE11=Last Will and Testament
TTITLE12=Who Am I Telling You
TTITLE13=Ride The River
EXTD=YEAR: 2006
EXTT0=
EXTT1=
EXTT2=
EXTT3=
EXTT4=
EXTT5=
EXTT6=
EXTT7=
EXTT8=
EXTT9=
EXTT10=
EXTT11=
EXTT12=
EXTT13=
PLAYORDER=
